<?xml version="1.0" encoding="utf-8"?>
<!-- Generator: Adobe Illustrator 17.0.0, SVG Export Plug-In . SVG Version: 6.00 Build 0)  -->
<!DOCTYPE svg PUBLIC "-//W3C//DTD SVG 1.1//EN" "http://www.w3.org/Graphics/SVG/1.1/DTD/svg11.dtd">
<svg version="1.1" id="Layer_1" xmlns="http://www.w3.org/2000/svg" xmlns:xlink="http://www.w3.org/1999/xlink" x="0px" y="0px"
	 width="116.573px" height="38.858px" viewBox="0 0 116.573 38.858" enable-background="new 0 0 116.573 38.858"
	 xml:space="preserve">
<g>
	<g>
		<path fill="#FFFFFF" d="M96.65,26.884c1.588,0,2.859-0.614,3.824-1.835c0.965-1.232,1.448-2.851,1.448-4.882
			c0-2.045-0.483-3.68-1.448-4.926c-0.965-1.237-2.236-1.861-3.824-1.861c-1.586,0-2.865,0.624-3.839,1.879
			c-0.972,1.243-1.455,2.88-1.455,4.908c0,2.032,0.483,3.651,1.455,4.882C93.784,26.27,95.063,26.884,96.65,26.884 M67.118,11.452
			v6.96h1.754c1.076,0,1.894-0.299,2.474-0.886c0.577-0.593,0.868-1.435,0.868-2.544c0-1.136-0.291-2.009-0.868-2.617
			c-0.58-0.605-1.398-0.913-2.474-0.913H67.118z M11.181,27.026c2.547-0.018,4.405-0.582,5.58-1.697
			c1.17-1.105,1.754-2.848,1.754-5.214c0-2.318-0.561-4.044-1.68-5.181c-1.126-1.138-2.844-1.703-5.162-1.703h-0.491L11.181,27.026
			L11.181,27.026z M0,38.858V1.351h9.128c2.893,0,5.373,0.184,7.421,0.545c2.048,0.367,3.72,0.933,5.001,1.697
			c2.399,1.43,4.297,4.203,5.711,6.453v-8.72h11.05v20.365c0,2.262,0.237,3.813,0.697,4.661c0.465,0.853,1.248,1.279,2.374,1.279
			c1.105,0,1.894-0.441,2.367-1.312c0.481-0.881,0.717-2.419,0.717-4.629V1.326h11.055V21.6c0,2.526-0.145,4.611-0.431,6.258
			c-0.286,1.635-0.746,3.004-1.377,4.11c-1.235,2.219-2.913,3.928-5.043,5.108c-2.131,1.186-4.562,1.775-7.288,1.775
			c-2.747,0-5.186-0.589-7.316-1.775c-2.132-1.18-3.809-2.89-5.042-5.108c-0.47-0.827-0.839-1.807-1.112-2.947
			c-0.034,0.065-0.068,0.13-0.102,0.197c-1.441,2.657-3.523,5.765-6.261,7.397c-1.32,0.783-3.013,1.354-5.053,1.71
			s-4.782,0.533-8.205,0.533H0z M113.425,20.167c0,2.604-0.411,5.04-1.222,7.281c-0.811,2.253-2.002,4.262-3.576,6.03
			c-1.572,1.736-3.386,3.065-5.432,3.989c-2.048,0.92-4.232,1.385-6.545,1.385c-2.339,0-4.533-0.465-6.573-1.385
			c-2.048-0.923-3.861-2.269-5.45-4.037c-1.551-1.72-2.734-3.704-3.53-5.939c-0.606-1.705-0.983-3.524-1.13-5.461
			c-0.878,0.741-1.91,1.199-3.103,1.375l8.372,15.454H72.601l-5.484-12.707v12.707H56.061V1.326h14.184
			c4.114,0,7.255,1.029,9.427,3.091c1.284,1.216,2.188,3.709,2.71,5.562c0.635-1.128,1.383-2.171,2.246-3.127
			c1.575-1.746,3.381-3.082,5.427-3.995c2.041-0.922,4.242-1.378,6.596-1.378c2.355,0,4.554,0.457,6.596,1.378
			c2.048,0.913,3.862,2.25,5.448,3.995c1.536,1.733,2.713,3.738,3.517,5.988C113.023,15.099,113.425,17.541,113.425,20.167z"/>
		<path fill="#FFFFFF" d="M113.384,0.395c1.54,0,2.794,1.256,2.794,2.796s-1.254,2.796-2.794,2.796
			c-1.539,0-2.796-1.256-2.796-2.796S111.845,0.395,113.384,0.395 M113.384,0c1.755,0,3.189,1.433,3.189,3.191
			s-1.433,3.192-3.189,3.192c-1.757,0-3.191-1.435-3.191-3.192S111.627,0,113.384,0z"/>
		<polygon fill="#FFFFFF" points="113.337,4.387 113.337,3.191 113.337,1.996 113.665,1.996 113.993,1.996 114.19,2.812 
			114.387,3.628 114.58,2.812 114.775,1.996 115.105,1.996 115.433,1.996 115.433,3.191 115.433,4.387 115.23,4.387 115.027,4.387 
			115.027,3.449 115.027,2.503 114.811,3.449 114.595,4.387 114.385,4.387 114.174,4.387 113.959,3.449 113.746,2.503 
			113.746,3.449 113.746,4.387 113.539,4.387 		"/>
		<polygon fill="#FFFFFF" points="111.978,4.387 111.978,3.39 111.978,2.399 111.656,2.399 111.334,2.399 111.334,2.194 
			111.334,1.996 112.196,1.996 113.06,1.996 113.06,2.194 113.06,2.399 112.739,2.399 112.419,2.399 112.419,3.39 112.419,4.387 
			112.199,4.387 		"/>
	</g>
</g>
</svg>
