<svg id="Layer_1" data-name="Layer 1" xmlns="http://www.w3.org/2000/svg" viewBox="0 0 128 128"><defs><style>.cls-1{fill:#ed1c24;}.cls-2{fill:#fff;}</style></defs><title>Claculator 128</title><circle class="cls-1" cx="64" cy="64" r="64"/><path class="cls-2" d="M446.47,266.2H396.76a7.07,7.07,0,0,0-7.07,7.06V323a7.08,7.08,0,0,0,7.07,7.07h49.71a7.08,7.08,0,0,0,7.07-7.07V273.26A7.07,7.07,0,0,0,446.47,266.2ZM418,320.67a2.36,2.36,0,0,1-2.36,2.36H399.06a2.35,2.35,0,0,1-2.36-2.36V304.06a2.36,2.36,0,0,1,2.36-2.36h16.61a2.36,2.36,0,0,1,2.36,2.36Zm0-28.5a2.36,2.36,0,0,1-2.36,2.36H399.06a2.35,2.35,0,0,1-2.36-2.36v-16.6a2.36,2.36,0,0,1,2.36-2.37h16.61a2.37,2.37,0,0,1,2.36,2.37Zm28.5,28.5a2.35,2.35,0,0,1-2.36,2.36H427.56a2.36,2.36,0,0,1-2.36-2.36V304.06a2.36,2.36,0,0,1,2.36-2.36h16.61a2.36,2.36,0,0,1,2.36,2.36Zm0-28.5a2.35,2.35,0,0,1-2.36,2.36H427.56a2.36,2.36,0,0,1-2.36-2.36v-16.6a2.37,2.37,0,0,1,2.36-2.37h16.61a2.36,2.36,0,0,1,2.36,2.37Zm-17.66-9.68h14v3.84h-14Zm0,27.85h14v3.83h-14Zm8.49-1.76h-3v-2.89h3Zm-3,7.35h3v2.89h-3Zm-20.69-7-3.58,3.59,3.58,3.59L411,318.82l-3.59-3.59-3.58,3.59-2.71-2.71,3.58-3.59-3.58-3.59,2.71-2.71,3.58,3.59,3.59-3.59Zm-4.38-26.44h5.08v3.84h-5.08v5.07h-3.83v-5.07h-5.08v-3.84h5.08v-5.07h3.83Z" transform="translate(-357.62 -234.12)"/></svg>