<?xml version="1.0" encoding="iso-8859-1"?>
<!-- Generator: Adobe Illustrator 19.0.0, SVG Export Plug-In . SVG Version: 6.00 Build 0)  -->
<svg xmlns="http://www.w3.org/2000/svg" xmlns:xlink="http://www.w3.org/1999/xlink" version="1.1" id="Layer_1" x="0px" y="0px" viewBox="0 0 512 512" style="enable-background:new 0 0 512 512;" xml:space="preserve" width="512" height="512">
<g id="XMLID_3851_">
	<g id="XMLID_118_">
		<g id="XMLID_919_">
			<path id="XMLID_1103_" style="fill:#89B4C9;" d="M504.5,102.96c0,4.96-2.01,9.46-5.26,12.72c-3.26,3.24-7.75,5.26-12.7,5.26     H25.46c-9.91,0-17.96-8.05-17.96-17.98c0-4.96,2.01-9.45,5.26-12.71c3.26-3.25,7.75-5.26,12.7-5.26h461.08     C496.45,84.99,504.5,93.03,504.5,102.96z"/>
			<rect id="XMLID_1100_" x="191.46" y="84.99" style="fill:#4E7693;" width="129.08" height="35.95"/>
			<path id="XMLID_1114_" style="fill:#FFDA2C;" d="M229.52,84.99v35.95H25.46c-9.91,0-17.96-8.05-17.96-17.98     c0-4.96,2.01-9.45,5.26-12.71c3.26-3.25,7.75-5.26,12.7-5.26H229.52z"/>
			<rect id="XMLID_1102_" x="191.46" y="84.99" style="fill:#FF9900;" width="38.06" height="35.95"/>
			<path id="XMLID_883_" style="fill:#DDEDE5;" d="M209.221,70.458l42.018-24.259c2.946-1.701,6.576-1.701,9.522,0l42.018,24.259     c2.946,1.701,4.761,4.844,4.761,8.246v48.518c0,3.402-1.815,6.545-4.761,8.246l-42.018,24.259c-2.946,1.701-6.576,1.701-9.522,0     l-42.018-24.259c-2.946-1.701-4.761-4.844-4.761-8.246V78.704C204.46,75.302,206.275,72.159,209.221,70.458z"/>
			<polygon id="XMLID_971_" style="fill:#618BAA;" points="229.739,118.125 229.739,87.802 256,72.64 282.261,87.802      282.261,118.125 256,133.286    "/>
		</g>
		<path id="XMLID_1097_" style="fill:#89B4C9;" d="M504.5,256c0,4.96-2.01,9.46-5.26,12.71c-3.26,3.25-7.75,5.27-12.7,5.27H25.46    c-9.91,0-17.96-8.05-17.96-17.98c0-4.96,2.01-9.46,5.26-12.71c3.26-3.25,7.75-5.27,12.7-5.27h461.08    C496.45,238.02,504.5,246.07,504.5,256z"/>
		<rect id="XMLID_1031_" x="88.38" y="238.02" style="fill:#4E7693;" width="129.08" height="35.96"/>
		<path id="XMLID_61_" style="fill:#FF4F19;" d="M126.66,238.02v35.96H25.46c-9.91,0-17.96-8.05-17.96-17.98    c0-4.96,2.01-9.46,5.26-12.71c3.26-3.25,7.75-5.27,12.7-5.27H126.66z"/>
		<rect id="XMLID_59_" x="88.38" y="238.02" style="fill:#F40029;" width="38.28" height="35.96"/>
		<g id="XMLID_921_">
			<path id="XMLID_1007_" style="fill:#DDEDE5;" d="M106.142,223.495l42.018-24.259c2.946-1.701,6.576-1.701,9.522,0l42.018,24.259     c2.946,1.701,4.761,4.844,4.761,8.246v48.518c0,3.402-1.815,6.545-4.761,8.246l-42.018,24.259c-2.946,1.701-6.576,1.701-9.522,0     l-42.018-24.259c-2.946-1.701-4.761-4.844-4.761-8.246v-48.518C101.381,228.339,103.196,225.196,106.142,223.495z"/>
			<polygon id="XMLID_1002_" style="fill:#618BAA;" points="126.66,271.162 126.66,240.839 152.921,225.677 179.182,240.839      179.182,271.162 152.921,286.323    "/>
		</g>
		<path id="XMLID_114_" style="fill:#89B4C9;" d="M504.5,409.04c0,4.96-2.01,9.45-5.26,12.71c-3.26,3.25-7.75,5.26-12.7,5.26H25.46    c-9.91,0-17.96-8.04-17.96-17.97c0-4.96,2.01-9.46,5.26-12.72c3.26-3.24,7.75-5.26,12.7-5.26h461.08    C496.45,391.06,504.5,399.11,504.5,409.04z"/>
		<rect id="XMLID_104_" x="303.13" y="391.06" style="fill:#4E7693;" width="129.08" height="35.95"/>
		<path id="XMLID_122_" style="fill:#00D8E0;" d="M341.41,391.06v35.95H25.46c-9.91,0-17.96-8.04-17.96-17.97    c0-4.96,2.01-9.46,5.26-12.72c3.26-3.24,7.75-5.26,12.7-5.26H341.41z"/>
		<rect id="XMLID_113_" x="303.13" y="391.06" style="fill:#00A2A9;" width="38.28" height="35.95"/>
		<path id="XMLID_1022_" style="fill:#DDEDE5;" d="M320.888,376.532l42.018-24.259c2.946-1.701,6.576-1.701,9.522,0l42.018,24.259    c2.946,1.701,4.761,4.844,4.761,8.246v48.518c0,3.402-1.815,6.545-4.761,8.246l-42.018,24.259c-2.946,1.701-6.576,1.701-9.522,0    l-42.018-24.259c-2.946-1.701-4.761-4.844-4.761-8.246v-48.518C316.127,381.376,317.942,378.233,320.888,376.532z"/>
		<polygon id="XMLID_1019_" style="fill:#618BAA;" points="341.406,424.199 341.406,393.876 367.667,378.714 393.927,393.876     393.927,424.199 367.667,439.36   "/>
	</g>
	<g id="XMLID_1999_">
		<path id="XMLID_2043_" d="M25.464,128.439h171.544c0.404,5.594,3.568,10.699,8.464,13.524l42.018,24.259    c2.625,1.516,5.567,2.273,8.511,2.273c2.942,0,5.887-0.758,8.511-2.273l42.017-24.258c4.897-2.826,8.061-7.931,8.465-13.525    h27.518c4.143,0,7.5-3.357,7.5-7.5s-3.357-7.5-7.5-7.5h-27.472V92.487h171.497c5.77,0,10.464,4.699,10.464,10.476    c0,2.801-1.089,5.432-3.057,7.4c-1.99,1.983-4.621,3.075-7.407,3.075H372.822c-4.143,0-7.5,3.357-7.5,7.5s3.357,7.5,7.5,7.5    h113.714c6.783,0,13.174-2.646,18.005-7.46c4.811-4.812,7.459-11.209,7.459-18.016c0-14.047-11.423-25.476-25.464-25.476H314.993    c-0.404-5.593-3.568-10.697-8.464-13.524l-42.018-24.259c-5.25-3.031-11.773-3.032-17.021,0l-42.018,24.259    c-4.897,2.827-8.06,7.932-8.464,13.524h-71.518c-4.143,0-7.5,3.357-7.5,7.5s3.357,7.5,7.5,7.5h71.472v20.951H25.464    c-5.77,0-10.464-4.699-10.464-10.476c0-2.801,1.089-5.432,3.058-7.399c1.989-1.983,4.62-3.076,7.406-3.076h69.714    c4.143,0,7.5-3.357,7.5-7.5s-3.357-7.5-7.5-7.5H25.464c-6.783,0-13.175,2.646-18.005,7.46C2.649,89.758,0,96.156,0,102.963    C0,117.01,11.423,128.439,25.464,128.439z M211.961,78.704c0-0.72,0.388-1.391,1.011-1.751l42.018-24.259    c0.623-0.359,1.398-0.359,2.021,0l42.018,24.259c0.623,0.36,1.011,1.031,1.011,1.751v48.518c0,0.72-0.387,1.391-1.011,1.751    l-42.018,24.259c-0.623,0.359-1.398,0.359-2.021,0l-42.019-24.26c-0.623-0.359-1.01-1.03-1.01-1.75V78.704z"/>
		<path id="XMLID_2032_" d="M225.989,124.619l26.261,15.162c1.16,0.67,2.455,1.005,3.75,1.005s2.59-0.335,3.75-1.005l26.261-15.162    c2.32-1.34,3.75-3.815,3.75-6.495V87.802c0-2.68-1.43-5.155-3.75-6.495L259.75,66.145c-2.32-1.34-5.18-1.34-7.5,0l-26.261,15.162    c-2.32,1.34-3.75,3.815-3.75,6.495v30.322C222.239,120.804,223.669,123.279,225.989,124.619z M237.239,92.132L256,81.3    l18.761,10.832v21.662L256,124.626l-18.761-10.832V92.132z"/>
		<path id="XMLID_2019_" d="M486.536,230.525H211.913c-0.404-5.594-3.568-10.699-8.464-13.524l-42.018-24.259    c-5.249-3.031-11.772-3.032-17.021,0l-42.017,24.258c-4.897,2.826-8.061,7.931-8.465,13.525H25.464    c-6.783,0-13.174,2.646-18.005,7.46C2.648,242.796,0,249.194,0,256c0,14.047,11.423,25.476,25.464,25.476h68.464    c0.404,5.594,3.568,10.699,8.464,13.524l42.018,24.259c2.625,1.516,5.567,2.273,8.511,2.273c2.942,0,5.887-0.758,8.511-2.273    l42.017-24.258c4.897-2.826,8.061-7.931,8.465-13.525h162.597c4.143,0,7.5-3.357,7.5-7.5s-3.357-7.5-7.5-7.5H211.96v-20.951    h274.576c5.77,0,10.464,4.699,10.464,10.476c0,2.801-1.089,5.432-3.058,7.399c-1.989,1.983-4.62,3.076-7.406,3.076h-81.714    c-4.143,0-7.5,3.357-7.5,7.5s3.357,7.5,7.5,7.5h81.714c6.783,0,13.175-2.646,18.005-7.46C509.351,269.205,512,262.807,512,256    C512,241.953,500.577,230.525,486.536,230.525z M15,256c0-2.801,1.089-5.433,3.057-7.4c1.99-1.983,4.621-3.075,7.407-3.075h68.418    v20.951H25.464C19.694,266.476,15,261.777,15,256z M196.96,280.259c0,0.72-0.387,1.391-1.011,1.751l-42.018,24.259    c-0.623,0.359-1.398,0.359-2.021,0l-42.019-24.26c-0.623-0.359-1.01-1.03-1.01-1.75v-48.518c0-0.72,0.387-1.391,1.01-1.75    l0.001-0.001l42.018-24.259c0.312-0.18,0.661-0.27,1.011-0.27s0.699,0.09,1.011,0.27l42.019,24.26    c0.623,0.359,1.01,1.03,1.01,1.75V280.259z"/>
		<path id="XMLID_2015_" d="M182.932,234.344l-26.261-15.162c-2.32-1.34-5.18-1.34-7.5,0l-26.261,15.162    c-2.32,1.34-3.75,3.815-3.75,6.495v30.322c0,2.68,1.43,5.155,3.75,6.495l26.261,15.162c1.16,0.67,2.455,1.005,3.75,1.005    s2.59-0.335,3.75-1.005l26.261-15.162c2.32-1.34,3.75-3.815,3.75-6.495v-30.322C186.682,238.159,185.252,235.684,182.932,234.344z     M171.682,266.831l-18.761,10.832l-18.761-10.832v-21.662l18.761-10.832l18.761,10.832V266.831z"/>
		<path id="XMLID_2008_" d="M486.536,383.562H426.66c-0.404-5.594-3.568-10.699-8.464-13.524l-42.018-24.259    c-5.248-3.029-11.771-3.033-17.022,0l-42.018,24.259c-4.896,2.826-8.06,7.931-8.464,13.524H25.464    c-6.781,0-13.172,2.646-18.005,7.46C2.648,395.833,0,402.231,0,409.037c0,14.047,11.423,25.476,25.464,25.476h283.21    c0.404,5.592,3.568,10.696,8.464,13.524l42.018,24.259c2.625,1.516,5.567,2.273,8.512,2.273c2.942,0,5.886-0.758,8.511-2.273    l42.018-24.259c4.897-2.827,8.06-7.932,8.464-13.524h59.877c6.782,0,13.173-2.646,18.005-7.46    c4.81-4.811,7.459-11.209,7.459-18.016C512,394.99,500.577,383.562,486.536,383.562z M15,409.037c0-2.801,1.089-5.433,3.056-7.399    c1.991-1.983,4.622-3.076,7.408-3.076h283.163v20.951H25.464C19.694,419.513,15,414.814,15,409.037z M411.706,433.296    c0,0.72-0.388,1.391-1.011,1.751l-42.018,24.259c-0.625,0.359-1.399,0.359-2.022,0l-42.017-24.258    c-0.624-0.361-1.012-1.032-1.012-1.752v-48.518c0-0.72,0.387-1.391,1.011-1.751l42.018-24.259c0.313-0.18,0.661-0.271,1.011-0.271    s0.7,0.091,1.012,0.271l42.019,24.26c0.623,0.359,1.01,1.03,1.01,1.75V433.296z M493.943,416.437    c-1.991,1.983-4.621,3.076-7.407,3.076h-59.83v-20.951h59.83c5.77,0,10.464,4.699,10.464,10.476    C497,411.838,495.911,414.469,493.943,416.437z"/>
		<path id="XMLID_2000_" d="M397.678,387.381l-26.261-15.162c-2.32-1.34-5.18-1.34-7.5,0l-26.261,15.162    c-2.32,1.34-3.75,3.815-3.75,6.495v30.322c0,2.68,1.43,5.155,3.75,6.495l26.261,15.162c1.16,0.67,2.455,1.005,3.75,1.005    s2.59-0.335,3.75-1.005l26.261-15.162c2.32-1.34,3.75-3.815,3.75-6.495v-30.322C401.428,391.196,399.998,388.721,397.678,387.381z     M386.428,419.868L367.667,430.7l-18.761-10.832v-21.662l18.761-10.832l18.761,10.832V419.868z"/>
	</g>
</g>















</svg>
