<svg height="512pt" viewBox="-49 0 512 512" width="512pt" xmlns="http://www.w3.org/2000/svg"><path d="m70.621094 0c-2.992188 0-5.921875.246094-8.828125.617188-19.800781.097656-40.28125 16.578124-50.484375 32.476562-8.808594 13.726562-11.308594 28.539062-11.308594 44.535156v60.65625 93.128906 89.105469 48.589844 54.4375c0 9.808594 8.023438 17.832031 17.824219 17.832031h388.246093v-441.378906zm0 0" fill="#b02721"/><path d="m70.621094 353.101562c-38.839844 0-70.621094 31.78125-70.621094 70.621094 0 38.84375 31.78125 70.621094 70.621094 70.621094h344.277344v-141.242188zm0 0" fill="#f2ecbf"/><path d="m70.621094 388.414062c-19.472656 0-35.3125 15.835938-35.3125 35.308594 0 19.476563 15.839844 35.3125 35.3125 35.3125h61.792968v-35.3125h52.964844v35.3125h229.519532v-70.621094zm0 0" fill="#c6bf95"/><path d="m0 70.621094v353.101562c0-38.839844 31.78125-70.621094 70.621094-70.621094h344.277344v-353.101562h-344.277344c-38.839844 0-70.621094 31.78125-70.621094 70.621094zm0 0" fill="#dd352e"/><path d="m132.414062 432.550781h-61.792968c-4.875 0-8.828125-3.953125-8.828125-8.828125 0-4.871094 3.953125-8.824218 8.828125-8.824218h61.792968c4.871094 0 8.828126 3.953124 8.828126 8.824218 0 4.875-3.957032 8.828125-8.828126 8.828125zm0 0" fill="#968f6b"/><path d="m238.34375 432.550781h-52.964844c-4.871094 0-8.828125-3.953125-8.828125-8.828125 0-4.871094 3.957031-8.824218 8.828125-8.824218h52.964844c4.875 0 8.828125 3.953124 8.828125 8.824218 0 4.875-3.953125 8.828125-8.828125 8.828125zm0 0" fill="#968f6b"/><path d="m61.792969.617188c-34.710938 4.386718-61.792969 34.15625-61.792969 70.003906v353.101562c0-35.847656 27.082031-65.613281 61.792969-70zm0 0" fill="#b02721"/><path d="m0 131.179688v54.199218c0-35.847656 27.082031-65.613281 61.792969-70.003906v-54.199219c-34.710938 4.386719-61.792969 34.152344-61.792969 70.003907zm0 0" fill="#871818"/><path d="m0 273.039062v54.199219c0-35.847656 27.082031-65.613281 61.792969-70.003906v-54.199219c-34.710938 4.386719-61.792969 34.152344-61.792969 70.003906zm0 0" fill="#871818"/><path d="m185.378906 512-26.480468-26.484375-26.484376 26.484375v-97.101562h52.964844zm0 0" fill="#ebba16"/><path d="m414.898438 414.898438h-44.140626c-4.871093 0-8.828124 3.953124-8.828124 8.824218 0 4.875 3.957031 8.828125 8.828124 8.828125h44.140626zm0 0" fill="#968f6b"/><path d="m355.082031 136.269531c-5.722656 2.191407-12.253906.824219-15.46875-6.546875-4.472656-10.25-15.242187-19.660156-22.851562-27.871094-8.078125-8.710937-17.769531-14.582031-28.277344-19.949218-8.84375-4.519532-8.703125-13.726563-4.164063-20.003906-14.222656-5.710938-29.707031-8.933594-45.976562-8.933594-25.976562 0-50.058594 8.050781-69.957031 21.75 7.828125 5.359375 10.671875 18.292968-.042969 24.296875-15.457031 8.648437-24.570312 26.347656-34.03125 40.648437-3.9375 5.949219-10.074219 7.398438-15.527344 6.074219-2.535156 9.871094-4.027344 20.152344-4.027344 30.816406 0 34.480469 14.152344 65.632813 36.933594 88.054688 1.027344-1.269531 2.269532-2.425781 3.832032-3.335938 6.355468-3.714843 16.191406-1.792969 19.625 5.148438 4.898437 9.910156 9.710937 16.039062 20.160156 16.621093 7.523437.414063 13.871094 5.878907 14.265625 13.601563 9.253906 2.199219 18.847656 3.496094 28.769531 3.496094 14.503906 0 28.371094-2.628907 41.296875-7.21875.230469-2.949219 1.652344-5.90625 4.828125-8.441407 21.875-17.40625 38.972656-39.386718 56.832031-60.6875 3.847657-4.589843 8.5625-5.519531 12.78125-4.246093 4.996094-13.402344 7.847657-27.851563 7.847657-42.992188 0-14.125-2.480469-27.636719-6.847657-40.28125zm0 0" fill="#366db6"/><g fill="#61b872"><path d="m219.164062 159.789062c-16.464843-.390624-28.761718-17.839843-21.242187-33.210937.488281-.996094 1.050781-1.96875 1.429687-3.007813 3.25-9.007812 1.246094-23.304687-1.535156-32.152343-1.613281-5.136719-4.164062-10.097657-8.183594-13.761719-2.074218-1.898438-4.472656-3.390625-7.078124-4.429688-1.6875-.671874-7.398438-2.898437-9.066407-1.875-27.640625 17.074219-48.011719 44.730469-55.535156 77.3125 5.28125 4.539063 12.269531 6.535157 19.246094 6.214844 14.050781-.652344 43.332031.320313 43.332031 19.679688 0 14.007812-5.746094 24.160156-10.925781 30.472656-8.324219 10.140625-14.847657 21.730469-17.761719 34.53125-1.632812 7.1875-2.648438 15.175781-2.09375 23.121094.097656 1.457031 5.09375 4.960937 6.214844 5.964844 2.289062 2.050781 4.644531 4.007812 7.082031 5.878906 5.03125 3.878906 10.351563 7.355468 15.914063 10.417968 5.613281 3.082032 11.46875 5.730469 17.496093 7.902344 2.332031.835938 15.863281 6.144532 15.8125 2.824219-.0625-3.894531-.371093-7.785156-.917969-11.644531-.40625-2.851563-.945312-5.746094-.46875-8.589844.617188-3.707031 2.886719-6.9375 5.515626-9.613281 19.667968-20.027344 54.300781-39.195313 42.558593-72.878907-.671875-1.925781-1.472656-3.804687-2.382812-5.632812-11.097657-22.316406-26.5-27.269531-37.410157-27.523438zm0 0"/><path d="m354.332031 219.304688-10.710937-10.707032c-3.539063-3.445312-9.171875-4.582031-16.964844-4.582031-19.03125 0-25.371094 32.273437-25.371094 32.273437 0 12.90625-12.585937 18.078126-12.585937 18.078126s-31.859375 8.015624-22.890625 22.890624l10.210937 17.019532c36.238281-11.601563 65.210938-39.441406 78.3125-74.972656zm0 0"/><path d="m281.292969 60.644531-1.75 1.476563c-4.140625 5.417968-5.171875 10.40625-4.378907 17.652344-18.667968 17.285156-4.660156 37.15625 1.386719 45.726562 7 9.925781 26.410157 28.691406 49.761719 28.691406 9.648438 0 18.871094-3.285156 26.695312-9.507812l3.363282-2.675782.511718-.429687c-11.027343-37.429687-39.273437-67.46875-75.589843-80.933594zm0 0"/></g></svg>