<svg id="Layer_1" data-name="Layer 1" xmlns="http://www.w3.org/2000/svg" viewBox="0 0 128 128"><defs><style>.cls-1{fill:#ec1c24;}.cls-2{fill:#fff;fill-rule:evenodd;}</style></defs><title>Rewards Catalogue 128</title><circle class="cls-1" cx="64" cy="64" r="64"/><path class="cls-2" d="M431.64,267.57a3.76,3.76,0,0,1,.88,2.24,3.16,3.16,0,0,1-1.37,2.19,8.27,8.27,0,0,1-4.81,1.69,2.3,2.3,0,0,1-1.74-.54,1.49,1.49,0,0,1-.28-.88v-.22a3.55,3.55,0,0,1,.38-1.58,9,9,0,0,1,2.52-3.5,3.44,3.44,0,0,1,2-.82,3.3,3.3,0,0,1,2.4,1.42Zm-6.88,10.93v23.73H421.1V278.5Zm-3.61-8a3.42,3.42,0,0,1,.38,1.58v.22a1.48,1.48,0,0,1-.27.88,2.33,2.33,0,0,1-1.75.54A8.32,8.32,0,0,1,414.7,272a3.14,3.14,0,0,1-1.36-2.19,3.75,3.75,0,0,1,.87-2.24,3.34,3.34,0,0,1,2.41-1.42,3.44,3.44,0,0,1,2,.82,8.92,8.92,0,0,1,2.51,3.5ZM438,285.34a3.54,3.54,0,0,0,2.57-3.39v-4.54a3.48,3.48,0,0,0-3.45-3.5h-4a5.64,5.64,0,0,0,2.13-4,6.14,6.14,0,0,0-1.52-4,5.73,5.73,0,0,0-4.54-2.52,5.85,5.85,0,0,0-3.72,1.48,10.17,10.17,0,0,0-2.56,3,11.37,11.37,0,0,0-2.63-3,5.83,5.83,0,0,0-3.71-1.48,5.72,5.72,0,0,0-4.54,2.52,6.15,6.15,0,0,0-1.53,4,5.64,5.64,0,0,0,2.13,4h-4a3.48,3.48,0,0,0-3.44,3.5V282a3.52,3.52,0,0,0,2.57,3.39V303a2.44,2.44,0,0,0,2.4,2.46h25.41A2.44,2.44,0,0,0,438,303Z" transform="translate(-357.31 -233.75)"/><path class="cls-2" d="M373.45,309.72v14.82l1.25-.22a58.63,58.63,0,0,1,11-1.31,26.43,26.43,0,0,1,6,.65c2.46.55,8.52,2.36,14.42,4s11.7,3.5,14,4a17.58,17.58,0,0,0,3.77.44c3.12,0,6.45-1.42,9.73-2.74,1-.43,2-.87,3-1.25L465.8,315.9c3.33-1.53,3.5-3.12,3.33-3.94-.38-1.64-2.84-2.89-5.85-2.89a10.38,10.38,0,0,0-2.56.32c-3.83.83-23.77,5.75-24,5.8l-.39.11.28.27c1.8,2,2.46,3.94,1.8,5.47-1,2.19-4.32,3.39-9.51,3.39a67.11,67.11,0,0,1-16.61-2.68c.82.06,1.58.16,2.35.22,4.81.44,9.29.82,13,.82,5.46,0,8.2-.93,8.91-3,.44-1.42-.22-2.63-2-3.61s-6.07-2.13-10.06-3.06c-2.73-.66-5.3-1.31-7.1-1.92-6.29-2.24-12.74-4.54-20.72-4.54-1.2,0-2.45.06-3.66.17a177.84,177.84,0,0,0-18.63,2.68Z" transform="translate(-357.31 -233.75)"/></svg>