<svg id="Layer_1" data-name="Layer 1" xmlns="http://www.w3.org/2000/svg" viewBox="0 0 128 128"><defs><style>.cls-1{fill:#ec1c24;}.cls-2{fill:#fff;}</style></defs><title>Company Profile 128</title><circle class="cls-1" cx="64" cy="64" r="64"/><path class="cls-2" d="M430.91,330.56h29.55v6.31H381.9v-6.25h29.76v-.12c-4.41-.82-8.89-1.37-13.2-2.54a52.24,52.24,0,0,1-10.49-4.2,15.37,15.37,0,0,1-4.82-4.62c-.61-.81-.47-2.49-.09-3.57.19-.52,1.73-.56,3-.9-1.19,3.69.88,5.34,3.25,6.68,4.34,2.44,9.15,3.37,14,4.1a127.27,127.27,0,0,0,30.4.7c5.84-.52,11.66-1.38,17.14-3.65a18.84,18.84,0,0,0,3.83-2.13c1.75-1.25,2.84-2.89,1.71-5.6,1.26.26,2.53.14,3.07.71a2.71,2.71,0,0,1,0,3.72,29.28,29.28,0,0,1-5.82,5.16c-5.17,3.07-11,4.24-16.9,5.16A53.49,53.49,0,0,0,430.91,330.56ZM460.55,281v28.84c0,2.39-.33,2.72-2.79,2.72q-36.47,0-72.94,0c-1,0-1.94-.69-2.92-1.05V279.16a9.63,9.63,0,0,1,3-1q36.38-.09,72.76,0C460.23,278.09,460.55,278.41,460.55,281Zm-3.39.48H385.3v27.64h71.86Zm-36-18.24a6.59,6.59,0,0,0,6.62-6.48,6.47,6.47,0,0,0-6.59-6.43,6.28,6.28,0,0,0-6.37,6.41A6.43,6.43,0,0,0,421.17,263.28Zm2.39,12.43h11.7c-.77-2.68-1.38-5.3-2.33-7.78a4.18,4.18,0,0,0-2.35-2A27.62,27.62,0,0,0,426,265Zm-7-10.72a18.62,18.62,0,0,0-4.39.81,5.54,5.54,0,0,0-2.74,2.57,65.31,65.31,0,0,0-2.16,7.28h12.38C417.07,272.44,417.81,268.53,416.59,265Zm-15.85,4.59a5.43,5.43,0,0,0,5.44-5.29,5.36,5.36,0,1,0-10.72-.14A5.39,5.39,0,0,0,400.74,269.58Zm41.07,0a5.35,5.35,0,0,0,5.28-5.41,5.14,5.14,0,0,0-5.29-5.31,5.3,5.3,0,0,0-5.43,5.23A5.48,5.48,0,0,0,441.81,269.57ZM415.18,322.9a3.39,3.39,0,0,0,3.87-2.61,40.88,40.88,0,0,0,.28-5.25H412c0,1.66-.06,3.13,0,4.58A3.49,3.49,0,0,0,415.18,322.9Zm8.2-3a3.46,3.46,0,0,0,3.38,3,3.39,3.39,0,0,0,3.62-2.69,45.67,45.67,0,0,0,0-5.11,8.61,8.61,0,0,0-1.14-.14c-1.88,0-3.76,0-5.95,0,0,.9,0,1.56,0,2.22C423.34,318.1,423.28,319,423.38,319.92Zm-25.57-44.23c-.26-1.6-.49-3.07-.72-4.52-.55,0-1.07,0-1.55.07-1.92.15-3.25.49-4,1.38a4.42,4.42,0,0,0-.83,3.07h7.13Zm46.95,0H452c-.46-3.64-1.74-4.54-6.49-4.55C445.27,272.6,445,274.1,444.76,275.68Zm-24.5-10.8c-.18,2.45-.22,4.78-.56,7.06a4.23,4.23,0,0,0,1.6,3.9c1-1.18,1.81-2.16,1.52-3.88a69.44,69.44,0,0,1-.53-7.08Zm-22.39,53.49c1.23-.58,1.52-1.91,1.15-3.31h-5.88c-.13,1.52.05,2.93,1.49,3.45A4.69,4.69,0,0,0,397.87,318.37Zm48.95.57c1.8-.18,2.67-1.42,2.59-3.86a5.91,5.91,0,0,0-.81-.11c-1.28,0-2.57,0-3.85,0s-1.47.52-1.27,1.58A2.92,2.92,0,0,0,446.82,318.94Zm-41.1,0c1.9-.11,2.84-1.46,2.58-3.82h-5.76C402.48,317.75,403.65,319.08,405.72,319Zm29.72-.59a4,4,0,0,0,3.17.12c1.32-.5,1.66-1.82,1.29-3.45h-6.32C434.29,316.4,434.59,317.78,435.44,318.37Zm5.4-42.72h1.89v-4.83h-1.89Zm-41,.07h2V270.9h-2Zm4.84.13,1.39-4.75C404.3,271.25,403.63,273.31,404.66,275.85Zm31.82-4.54c.5,1.55,1,3.06,1.46,4.57l.58-.2C438.75,272.56,438.13,271.05,436.48,271.31Zm-42.64,24.82h54.72a3.29,3.29,0,0,0,1.09,0,11.85,11.85,0,0,0,1.54-.8c-.48-.24-.95-.51-1.44-.72a1.45,1.45,0,0,0-.55,0H393.37a1.92,1.92,0,0,0-.72,0,12,12,0,0,0-1.25.73,5.13,5.13,0,0,0,1.16.78A3.89,3.89,0,0,0,393.84,296.13Zm-1.62,6.51a3.88,3.88,0,0,0,1.28.05h55.62a3.55,3.55,0,0,0,1.27-.06c.32-.12.53-.53.79-.81-.24-.22-.46-.57-.74-.64a6.47,6.47,0,0,0-1.46-.06H393.72a5.46,5.46,0,0,0-1.46.05c-.32.08-.58.45-.86.69C391.67,302.13,391.9,302.52,392.22,302.64Zm-.13-13.1a7.46,7.46,0,0,0,1.64.07h55.08a5.91,5.91,0,0,0,1.46,0c.35-.1.62-.46.92-.7a4.55,4.55,0,0,0-1-.83,2.76,2.76,0,0,0-1.08,0H393.49a5,5,0,0,0-1.46.09,1,1,0,0,0-.58.77A1,1,0,0,0,392.09,289.54Z" transform="translate(-357.23 -234.12)"/></svg>