<?xml version="1.0" encoding="iso-8859-1"?>
<!-- Generator: Adobe Illustrator 19.0.0, SVG Export Plug-In . SVG Version: 6.00 Build 0)  -->
<svg version="1.1" id="Capa_1" xmlns="http://www.w3.org/2000/svg" xmlns:xlink="http://www.w3.org/1999/xlink" x="0px" y="0px"
	 viewBox="0 0 512 512" style="enable-background:new 0 0 512 512;" xml:space="preserve">
<rect x="135.52" y="474.5" style="fill:#ABBFCF;" width="240.97" height="30"/>
<rect x="346.48" y="474.5" style="fill:#859AAB;" width="30" height="30"/>
<rect x="153" y="108.5" style="fill:#8BEBDB;" width="206" height="366"/>
<rect x="329" y="108.5" style="fill:#5EE2C5;" width="30" height="366"/>
<rect x="263.5" y="48.5" style="fill:#ABBFCF;" width="80" height="60"/>
<rect x="313.5" y="48.5" style="fill:#859AAB;" width="30" height="60"/>
<rect x="175.03" y="78.5" style="fill:#537983;" width="60" height="30"/>
<rect x="205.03" y="78.5" style="fill:#3E5959;" width="30" height="30"/>
<rect x="299" y="160.83" style="fill:#00D3B4;" width="30" height="30"/>
<rect x="241" y="160.83" style="fill:#FF9D5C;" width="30" height="30"/>
<rect x="182.67" y="160.83" style="fill:#00D3B4;" width="30" height="30"/>
<rect x="299" y="223.79" style="fill:#FF9D5C;" width="30" height="30"/>
<g>
	<rect x="241" y="223.79" style="fill:#00D3B4;" width="30" height="30"/>
	<rect x="182.67" y="223.79" style="fill:#00D3B4;" width="30" height="30"/>
</g>
<g>
	<rect x="299" y="286.75" style="fill:#FF9D5C;" width="30" height="30"/>
	<rect x="241" y="286.75" style="fill:#FF9D5C;" width="30" height="30"/>
	<rect x="182.67" y="286.75" style="fill:#FF9D5C;" width="30" height="30"/>
</g>
<g>
	<rect x="299" y="349.7" style="fill:#00D3B4;" width="30" height="30"/>
	<rect x="241" y="349.7" style="fill:#00D3B4;" width="30" height="30"/>
	<rect x="182.67" y="349.7" style="fill:#00D3B4;" width="30" height="30"/>
</g>
<rect x="182.67" y="417.5" style="fill:#537983;" width="146.33" height="57"/>
<path style="fill:#FF5757;" d="M436,112.902C436,156.333,386,204,386,204s-50-46.333-50-91.098C336,84.79,358.386,62,386,62
	S436,84.79,436,112.902z"/>
<path style="fill:#E63950;" d="M386,62c-5.227,0-10.264,0.819-15,2.334c20.285,6.487,35,25.777,35,48.569
	c0,27.743-20.401,57.212-35.141,74.883C379.327,197.814,386,204,386,204s50-47.667,50-91.098C436,84.79,413.614,62,386,62z"/>
<circle style="fill:#FF9D5C;" cx="386" cy="115.06" r="20"/>
<path d="M504.5,497H480c-4.143,0-7.5,3.358-7.5,7.5s3.357,7.5,7.5,7.5h24.5c4.143,0,7.5-3.358,7.5-7.5S508.643,497,504.5,497z"/>
<path d="M448.083,497h-64.1v-22.5c0-4.142-3.357-7.5-7.5-7.5H366.5v-19c0-4.142-3.357-7.5-7.5-7.5s-7.5,3.358-7.5,7.5v19h-15v-49.5
	c0-4.142-3.357-7.5-7.5-7.5H182.67c-4.143,0-7.5,3.358-7.5,7.5V467H160.5V160c0-4.142-3.357-7.5-7.5-7.5s-7.5,3.358-7.5,7.5v307
	h-9.983c-4.143,0-7.5,3.358-7.5,7.5V497H7.5c-4.143,0-7.5,3.358-7.5,7.5s3.357,7.5,7.5,7.5h440.583l0,0l0,0
	c4.143,0,7.5-3.358,7.5-7.5S452.226,497,448.083,497z M190.17,425H321.5v42H190.17V425z M143.017,497v-15l0,0l0,0h225.967l0,0l0,0
	v15H143.017z"/>
<path d="M153,135.5c4.143,0,7.5-3.358,7.5-7.5v-12l0,0h168.079l0,0l0,0c0.957,21.214,11.521,42.159,22.921,58.836v241.039
	c0,4.142,3.357,7.5,7.5,7.5s7.5-3.358,7.5-7.5v-221.59c7.698,8.942,13.693,14.559,14.402,15.216
	c1.439,1.334,3.269,1.999,5.098,1.999c1.864,0,3.728-0.691,5.175-2.072c2.137-2.037,52.325-50.413,52.325-96.526
	c0-32.203-25.794-58.402-57.5-58.402c-13.163,0-25.298,4.526-35,12.112V48.5c0-4.142-3.357-7.5-7.5-7.5h-6V7.5
	c0-4.142-3.357-7.5-7.5-7.5s-7.5,3.358-7.5,7.5V41h-5.928v-6.977c0-4.142-3.357-7.5-7.5-7.5s-7.5,3.358-7.5,7.5V41H263.5
	c-4.143,0-7.5,3.358-7.5,7.5V101h-13.466V78.5c0-4.142-3.357-7.5-7.5-7.5h-60c-4.143,0-7.5,3.358-7.5,7.5V101H153
	c-4.143,0-7.5,3.358-7.5,7.5V128C145.5,132.142,148.857,135.5,153,135.5z M386,69.5c23.435,0,42.5,19.47,42.5,43.402
	c0,31.763-30.254,67.287-42.563,80.424c-12.326-12.884-42.438-47.713-42.438-80.424C343.5,88.97,362.565,69.5,386,69.5z M271,56h65
	v28.117c-2.907,5.189-5.064,10.864-6.296,16.883H271V56z M182.534,86h45v15h-45V86z"/>
<path d="M336.5,160.833c0-4.142-3.357-7.5-7.5-7.5h-30c-4.143,0-7.5,3.358-7.5,7.5v30c0,4.142,3.357,7.5,7.5,7.5h30
	c4.143,0,7.5-3.358,7.5-7.5V160.833z M321.5,183.333h-15v-15h15V183.333z"/>
<path d="M278.5,160.833c0-4.142-3.357-7.5-7.5-7.5h-30c-4.143,0-7.5,3.358-7.5,7.5v30c0,4.142,3.357,7.5,7.5,7.5h30
	c4.143,0,7.5-3.358,7.5-7.5V160.833z M263.5,183.333h-15v-15h15V183.333z"/>
<path d="M220.17,160.833c0-4.142-3.357-7.5-7.5-7.5h-30c-4.143,0-7.5,3.358-7.5,7.5v30c0,4.142,3.357,7.5,7.5,7.5h30
	c4.143,0,7.5-3.358,7.5-7.5V160.833z M205.17,183.333h-15v-15h15V183.333z"/>
<path d="M336.5,223.791c0-4.142-3.357-7.5-7.5-7.5h-30c-4.143,0-7.5,3.358-7.5,7.5v30c0,4.142,3.357,7.5,7.5,7.5h30
	c4.143,0,7.5-3.358,7.5-7.5V223.791z M321.5,246.291h-15v-15h15V246.291z"/>
<path d="M278.5,223.791c0-4.142-3.357-7.5-7.5-7.5h-30c-4.143,0-7.5,3.358-7.5,7.5v30c0,4.142,3.357,7.5,7.5,7.5h30
	c4.143,0,7.5-3.358,7.5-7.5V223.791z M263.5,246.291h-15v-15h15V246.291z"/>
<path d="M220.17,223.791c0-4.142-3.357-7.5-7.5-7.5h-30c-4.143,0-7.5,3.358-7.5,7.5v30c0,4.142,3.357,7.5,7.5,7.5h30
	c4.143,0,7.5-3.358,7.5-7.5V223.791z M205.17,246.291h-15v-15h15V246.291z"/>
<path d="M336.5,286.748c0-4.142-3.357-7.5-7.5-7.5h-30c-4.143,0-7.5,3.358-7.5,7.5v30c0,4.142,3.357,7.5,7.5,7.5h30
	c4.143,0,7.5-3.358,7.5-7.5V286.748z M321.5,309.248h-15v-15h15V309.248z"/>
<path d="M278.5,286.748c0-4.142-3.357-7.5-7.5-7.5h-30c-4.143,0-7.5,3.358-7.5,7.5v30c0,4.142,3.357,7.5,7.5,7.5h30
	c4.143,0,7.5-3.358,7.5-7.5V286.748z M263.5,309.248h-15v-15h15V309.248z"/>
<path d="M220.17,286.748c0-4.142-3.357-7.5-7.5-7.5h-30c-4.143,0-7.5,3.358-7.5,7.5v30c0,4.142,3.357,7.5,7.5,7.5h30
	c4.143,0,7.5-3.358,7.5-7.5V286.748z M205.17,309.248h-15v-15h15V309.248z"/>
<path d="M329,342.206h-30c-4.143,0-7.5,3.358-7.5,7.5v30c0,4.142,3.357,7.5,7.5,7.5h30c4.143,0,7.5-3.358,7.5-7.5v-30
	C336.5,345.563,333.143,342.206,329,342.206z M321.5,372.206h-15v-15h15V372.206z"/>
<path d="M271,342.206h-30c-4.143,0-7.5,3.358-7.5,7.5v30c0,4.142,3.357,7.5,7.5,7.5h30c4.143,0,7.5-3.358,7.5-7.5v-30
	C278.5,345.563,275.143,342.206,271,342.206z M263.5,372.206h-15v-15h15V372.206z"/>
<path d="M212.67,342.206h-30c-4.143,0-7.5,3.358-7.5,7.5v30c0,4.142,3.357,7.5,7.5,7.5h30c4.143,0,7.5-3.358,7.5-7.5v-30
	C220.17,345.563,216.813,342.206,212.67,342.206z M205.17,372.206h-15v-15h15V372.206z"/>
<path d="M386,142.562c15.163,0,27.5-12.336,27.5-27.5s-12.337-27.5-27.5-27.5s-27.5,12.336-27.5,27.5S370.837,142.562,386,142.562z
	 M386,102.562c6.893,0,12.5,5.607,12.5,12.5s-5.607,12.5-12.5,12.5s-12.5-5.607-12.5-12.5S379.107,102.562,386,102.562z"/>
<g>
</g>
<g>
</g>
<g>
</g>
<g>
</g>
<g>
</g>
<g>
</g>
<g>
</g>
<g>
</g>
<g>
</g>
<g>
</g>
<g>
</g>
<g>
</g>
<g>
</g>
<g>
</g>
<g>
</g>
</svg>
