<svg id="Layer_1" data-name="Layer 1" xmlns="http://www.w3.org/2000/svg" viewBox="0 0 128 128"><defs><style>.cls-1{fill:#ec1c24;}.cls-2{fill:#fff;}</style></defs><title>compaints_query_icon128</title><circle class="cls-1" cx="64" cy="64" r="64"/><path class="cls-2" d="M421.45,259.39h-.05c-1.84.19-6.66,1.53-12.64,3.88s-11.94,3.24-16.88,4.54-4,7.3-4,7.3,1.84,24.27,2.59,28.27c3.58,19.11,30.57,34.47,30.57,34.47h0s27.51-14.9,31.23-34.36c.79-4.09,2.71-28.94,2.71-28.94s.94-6.17-4.18-7.38-11.21-1.95-17.37-4.2-10.12-3.44-11.93-3.58h-.06Zm9.74,8.92a87.27,87.27,0,0,0,13.32,3.45s3.65.9,4.28,1c0,0,.16,0,.11,1,0,.16,0,.18,0,.36-.73,9.48-2.09,25.53-2.61,28.28-1.6,8.38-9,16.13-14.94,21.12a93.3,93.3,0,0,1-10.27,7.5,96.56,96.56,0,0,1-10-7.53c-5.88-5.08-13.18-12.85-14.73-21.15-.51-2.71-1.82-18.46-2.52-27.75a3.6,3.6,0,0,0,0-.36,4.68,4.68,0,0,1,.06-1.13c1.3-.33,2.7-.64,4.17-1a84.11,84.11,0,0,0,13-3.67,74.44,74.44,0,0,1,10.44-3.37A78.18,78.18,0,0,1,431.19,268.31Z" transform="translate(-357.44 -234.12)"/><path class="cls-2" d="M421.35,267.28h0a44.61,44.61,0,0,0-9.36,3c-4.48,1.84-8.86,2.51-12.53,3.52s-3,5.73-3,5.73,1.37,19.09,1.93,22.23c2.66,15,22.67,27,22.67,27h0s20.3-11.73,23-27c.57-3.19,2-22.61,2-22.61s.7-4.82-3.07-5.78-8.26-1.55-12.8-3.33-7.47-2.72-8.81-2.83h0Z" transform="translate(-357.44 -234.12)"/><path class="cls-1" d="M416.36,305.37l-.05-1.48c-.17-2.89.79-5.84,3.34-8.9,1.82-2.16,3.29-4,3.29-5.9s-1.3-3.29-4.14-3.4a10.69,10.69,0,0,0-5.61,1.7l-1.93-6.18a19.33,19.33,0,0,1,9.47-2.33c7.49,0,10.89,4.14,10.89,8.85,0,4.31-2.67,7.14-4.82,9.53a9.71,9.71,0,0,0-2.89,7.09v1Zm-1.47,7.82a5.08,5.08,0,1,1,5.05,5.17A4.92,4.92,0,0,1,414.89,313.19Z" transform="translate(-357.44 -234.12)"/></svg>