<svg height="464pt" viewBox="-56 0 464 464" width="464pt" xmlns="http://www.w3.org/2000/svg"><path d="m272 96c-8.835938 0-16-7.164062-16-16v-80h-224c-17.671875 0-32 14.328125-32 32v400c0 17.671875 14.328125 32 32 32h288c17.671875 0 32-14.328125 32-32v-336zm-216 8c0-4.417969 3.582031-8 8-8h64c4.417969 0 8 3.582031 8 8v64c0 4.417969-3.582031 8-8 8h-64c-4.417969 0-8-3.582031-8-8zm0 112c0-4.417969 3.582031-8 8-8h64c4.417969 0 8 3.582031 8 8v64c0 4.417969-3.582031 8-8 8h-64c-4.417969 0-8-3.582031-8-8zm80 176c0 4.417969-3.582031 8-8 8h-64c-4.417969 0-8-3.582031-8-8v-64c0-4.417969 3.582031-8 8-8h64c4.417969 0 8 3.582031 8 8zm0 0" fill="#e6e7e8"/><path d="m352 160v272c0 17.671875-14.328125 32-32 32h-264zm0 0" fill="#e0e0e2"/><path d="m272 96h80l-96-96v80c0 8.835938 7.164062 16 16 16zm0 0" fill="#898890"/><g fill="#ffe477"><path d="m128 96h-64c-4.417969 0-8 3.582031-8 8v64c0 4.417969 3.582031 8 8 8h64c4.417969 0 8-3.582031 8-8v-64c0-4.417969-3.582031-8-8-8zm0 0"/><path d="m128 208h-64c-4.417969 0-8 3.582031-8 8v64c0 4.417969 3.582031 8 8 8h64c4.417969 0 8-3.582031 8-8v-64c0-4.417969-3.582031-8-8-8zm0 0"/><path d="m128 320h-64c-4.417969 0-8 3.582031-8 8v64c0 4.417969 3.582031 8 8 8h64c4.417969 0 8-3.582031 8-8v-64c0-4.417969-3.582031-8-8-8zm0 0"/></g><path d="m112 160c-2.121094 0-4.15625-.84375-5.65625-2.34375l-24-24 11.3125-11.3125 18.34375 18.34375 42.34375-42.34375 11.3125 11.3125-48 48c-1.5 1.5-3.535156 2.34375-5.65625 2.34375zm0 0" fill="#ff7956"/><path d="m112 272c-2.121094 0-4.15625-.84375-5.65625-2.34375l-24-24 11.3125-11.3125 18.34375 18.34375 42.34375-42.34375 11.3125 11.3125-48 48c-1.5 1.5-3.535156 2.34375-5.65625 2.34375zm0 0" fill="#ff7956"/><path d="m112 384c-2.121094 0-4.15625-.84375-5.65625-2.34375l-24-24 11.3125-11.3125 18.34375 18.34375 42.34375-42.34375 11.3125 11.3125-48 48c-1.5 1.5-3.535156 2.34375-5.65625 2.34375zm0 0" fill="#ff7956"/><path d="m208 168h80v16h-80zm0 0" fill="#3d9ae2"/><path d="m208 120h80v16h-80zm0 0" fill="#3d9ae2"/><path d="m208 280h80v16h-80zm0 0" fill="#ffb655"/><path d="m208 232h80v16h-80zm0 0" fill="#ffb655"/><path d="m208 392h80v16h-80zm0 0" fill="#f490c0"/><path d="m208 344h80v16h-80zm0 0" fill="#f490c0"/></svg>