<svg id="Layer_1" data-name="Layer 1" xmlns="http://www.w3.org/2000/svg" viewBox="0 0 128 128"><defs><style>.cls-1{fill:#ec1c24;}.cls-2{fill:#fff;}</style></defs><title>Ac Stmnt 128</title><circle class="cls-1" cx="64" cy="64" r="64"/><path class="cls-2" d="M435.78,260.06H397.47a4.67,4.67,0,0,0-4.66,4.67V331.5a4.67,4.67,0,0,0,4.66,4.67h46.92a4.67,4.67,0,0,0,4.67-4.67v-57Zm1.1,7,5.82,6.33h-5.82Zm8.26,64.45a.76.76,0,0,1-.75.75H397.47a.75.75,0,0,1-.74-.75V264.73a.74.74,0,0,1,.74-.74H433v11.34a2,2,0,0,0,2,2h10.22ZM420.3,284.91h16.62a1.47,1.47,0,0,1,0,2.94H420.3a1.47,1.47,0,0,1,0-2.94Zm18.09,11.84a1.46,1.46,0,0,1-1.47,1.46H403.64a1.47,1.47,0,1,1,0-2.93h33.28A1.47,1.47,0,0,1,438.39,296.75Zm0,9.54a1.47,1.47,0,0,1-1.47,1.47H403.64a1.47,1.47,0,0,1,0-2.94h33.28A1.47,1.47,0,0,1,438.39,306.29Zm0,9.71a1.46,1.46,0,0,1-1.47,1.46H403.64a1.47,1.47,0,1,1,0-2.93h33.28A1.47,1.47,0,0,1,438.39,316Z" transform="translate(-356.93 -234.12)"/><path class="cls-2" d="M412,286.21l-.65-1.72h-5.59l-.65,1.76a6.5,6.5,0,0,1-.66,1.39,1,1,0,0,1-.89.36,1.3,1.3,0,0,1-.93-.39,1.18,1.18,0,0,1-.4-.87,1.77,1.77,0,0,1,.1-.58c.06-.2.16-.48.3-.83l3.52-8.92.36-.92a4.7,4.7,0,0,1,.45-.9,1.88,1.88,0,0,1,.62-.57,1.91,1.91,0,0,1,1-.22,1.87,1.87,0,0,1,1,.22,1.8,1.8,0,0,1,.63.56,3.37,3.37,0,0,1,.4.75c.11.26.25.62.42,1.06l3.59,8.86a4.54,4.54,0,0,1,.42,1.47,1.22,1.22,0,0,1-.4.88,1.31,1.31,0,0,1-1,.4,1.22,1.22,0,0,1-.56-.12,1,1,0,0,1-.39-.32,2.59,2.59,0,0,1-.34-.62C412.16,286.67,412.06,286.42,412,286.21Zm-5.51-3.81h4.11l-2.07-5.67Z" transform="translate(-356.93 -234.12)"/></svg>